<?xml version="1.0" encoding="UTF-8" standalone="no"?>
<!-- Created with Inkscape (http://www.inkscape.org/) -->

<svg
   version="1.1"
   id="svg32"
   width="1097.3103"
   height="366.30533"
   viewBox="0 0 1097.3103 366.30533"
   sodipodi:docname="g4.svg"
   inkscape:export-filename="AutoMethycV5.drawio (2).svg"
   inkscape:export-xdpi="300"
   inkscape:export-ydpi="300"
   inkscape:version="1.3.2 (091e20ef0f, 2023-11-25)"
   xmlns:inkscape="http://www.inkscape.org/namespaces/inkscape"
   xmlns:sodipodi="http://sodipodi.sourceforge.net/DTD/sodipodi-0.dtd"
   xmlns="http://www.w3.org/2000/svg"
   xmlns:svg="http://www.w3.org/2000/svg">
  <defs
     id="defs36">
    <rect
       x="542.37994"
       y="393.09747"
       width="710.38861"
       height="381.00916"
       id="rect1" />
    <rect
       x="671.69873"
       y="451.54468"
       width="84.419403"
       height="44.314655"
       id="rect1961" />
    <rect
       x="671.69873"
       y="451.54468"
       width="84.419403"
       height="44.314655"
       id="rect1961-3-7" />
    <rect
       x="671.69873"
       y="451.54468"
       width="84.419403"
       height="44.314655"
       id="rect1961-2-7" />
    <rect
       x="671.69873"
       y="451.54468"
       width="84.419403"
       height="44.314655"
       id="rect1961-2-7-6" />
    <rect
       x="671.69873"
       y="451.54468"
       width="84.419403"
       height="44.314655"
       id="rect1961-2-7-8" />
    <rect
       x="671.69873"
       y="451.54468"
       width="84.419403"
       height="44.314655"
       id="rect1961-2-7-6-9" />
  </defs>
  <sodipodi:namedview
     id="namedview34"
     pagecolor="#505050"
     bordercolor="#eeeeee"
     borderopacity="1"
     inkscape:showpageshadow="0"
     inkscape:pageopacity="0"
     inkscape:pagecheckerboard="0"
     inkscape:deskcolor="#505050"
     showgrid="false"
     inkscape:zoom="1.4142136"
     inkscape:cx="418.60721"
     inkscape:cy="200.46477"
     inkscape:window-width="1906"
     inkscape:window-height="1031"
     inkscape:window-x="7"
     inkscape:window-y="42"
     inkscape:window-maximized="1"
     inkscape:current-layer="g38" />
  <g
     inkscape:groupmode="layer"
     inkscape:label="Image"
     id="g38"
     transform="translate(-8.4462757,-280.94986)">
    <g
       id="g4"
       transform="translate(59.91202,16.050858)"
       inkscape:export-filename="g4.svg"
       inkscape:export-xdpi="300"
       inkscape:export-ydpi="300">
      <g
         id="g2"
         transform="translate(-293.22002,-45.211834)">
        <path
           style="fill:#999999;fill-opacity:1"
           d="M 823.41056,594.15703 792.75745,443.77248 c 0,0 -2.29634,-8.71681 1.26942,-17.11638 5.10867,-12.03405 19.39399,-24.11665 45.46333,-14.91941 27.23436,9.60826 88.05971,55.28113 88.05971,55.28113 l -45.15222,14.67705 -42.79033,-29.35295 c 0,0 -13.6078,-8.80591 -10.76841,4.9704 4.20592,20.4063 40.29287,167.33808 40.29287,167.33808 0,0 -9.58844,2.84921 -21.96766,0.099 -12.37922,-2.75019 -18.6048,-12.64319 -18.6048,-12.64319 z"
           id="path1897-6"
           sodipodi:nodetypes="ccsscccsczcc" />
        <path
           style="fill:#000000;fill-opacity:1"
           d="m 958.21925,606.69821 64.45985,-101.02066 c 0,0 4.8816,-7.57803 4.0906,-16.66883 -1.1331,-13.02429 -10.9773,-28.935 -38.61305,-28.25804 -28.87087,0.70718 -100.84566,25.31137 -100.84566,25.31137 l 38.3924,27.93135 49.7741,-14.66766 c 0,0 15.66506,-4.16175 8.70116,8.05924 -10.31526,18.10252 -79.81153,128.47287 -79.81153,128.47287 0,0 12.72076,2.12814 26.48258,-2.51146 13.76182,-4.6396 27.36955,-26.64818 27.36955,-26.64818 z"
           id="path1897-6-5"
           sodipodi:nodetypes="ccsscccsczc" />
      </g>
    </g>
    <path
       style="fill:#000000;fill-opacity:1"
       d="m 127.89557,280.94986 c 0,0 -11.75575,8.27454 -20.21732,19.42239 -25.38345,33.44188 -62.37638,106.01904 2.89254,161.6215 4.68587,3.99188 17.06017,-10.07602 17.06017,-10.07602 0,0 -19.54453,-26.35282 -12.17319,-30.54011 7.12103,-4.04511 34.8378,-10.20985 34.8378,-10.20985 0,0 2.16763,-2.26487 3.79571,-6.88545 1.92351,-5.45904 2.46979,-9.30838 1.46822,-10.38707 -0.0214,-0.023 -7.64194,1.50378 -8.49919,1.72856 -0.73769,0.19344 -28.64553,7.64033 -34.78101,6.70176 -8.72662,-1.33494 -3.63486,-27.54685 -3.63486,-27.54685 0,0 20.34542,-3.50242 30.53945,-5.02044 10.19403,-1.51801 28.68054,-3.13494 28.68054,-3.13494 0,0 2.84394,-2.45501 4.85335,-7.82074 2.0094,-5.36573 1.76628,-9.71912 1.76628,-9.71912 0,0 -18.07823,0.32325 -35.40703,1.7784 -11.7683,0.98822 -25.20179,1.9259 -26.49754,2.39066 -3.28505,1.17827 12.11331,-45.12362 44.47954,-62.57083 2.5405,-1.36947 -7.024,-4.78028 -16.35676,-7.23123 -9.33276,-2.45095 -12.8067,-2.50062 -12.8067,-2.50062 z"
       id="path1569"
       sodipodi:nodetypes="csscscssssczczcssszc" />
    <path
       style="fill:#000000;fill-opacity:1"
       d="m 250.42063,405.74374 17.36985,34.93783 1.2213,1.17901 c 0,0 9.57932,6.80221 18.90661,18.03652 9.02355,10.86848 17.89659,26.10344 12.63971,30.57201 -30.59466,26.00674 -97.5473,17.95096 -116.0847,15.41909 -3.12516,-0.42683 -3.99695,2.74941 -3.8909,2.11751 0.10605,-0.6319 -0.39492,4.17437 1.87844,8.09351 0.10707,0.18459 0.68915,1.21988 1.34134,2.39765 0.39495,0.71324 0.81562,1.47873 1.17208,2.13918 1.11946,3.11238 6.59125,5.75506 6.59125,5.75506 0,0 46.69247,17.60649 116.64319,-11.39913 4.09674,-1.69875 5.12183,8.54828 6.29783,17.3893 1.176,8.84102 -5.10752,13.84386 -5.10752,13.84386 0,0 -42.45617,14.41548 -95.78716,9.7455 -6.65188,-0.58248 -4.24076,7.09029 -0.47404,12.02073 3.76673,4.93043 8.71739,7.77051 8.71739,7.77051 0,0 42.50969,6.22297 82.81339,-7.67684 3.24532,-1.11923 -3.55291,20.94691 -13.18474,39.85912 -10.73537,21.07901 -24.63148,39.31104 -24.63148,39.31104 0,0 45.80367,-11.18088 61.79572,-50.21448 15.54523,-37.94301 33.66021,-93.50916 -10.10877,-147.89135 -14.63527,-18.18405 -34.9842,-33.28709 -68.11879,-43.40563 z"
       id="path1730"
       sodipodi:nodetypes="cccssszssccsccszcsscssc" />
    <path
       style="fill:#000000;fill-opacity:1"
       d="m 772.88236,470.60036 -23.93676,-2.73099 14.27488,1.97744 c 0,0 -10.80052,10.99492 -10.50554,25.59359 0.28537,14.12327 -2.26778,31.56794 -9.16378,31.78734 -40.13419,1.27692 -87.4805,-46.74264 -100.4016,-60.27374 -2.17833,-2.28116 -4.83934,-0.34013 -4.36265,-0.76828 0.47669,-0.42815 -2.90997,3.01884 -3.57395,7.50068 -0.0313,0.2111 -0.22112,1.38353 -0.4449,2.71109 -0.13552,0.80395 -0.28348,1.66479 -0.41622,2.40346 -1.06378,3.13185 1.56921,8.6083 1.56921,8.6083 0,0 25.549,42.86519 98.33354,63.7659 4.26271,1.22407 -13.03693,6.35614 -17.62607,14.00378 -4.58914,7.64765 -8.41688,7.72306 -8.41688,7.72306 0,0 -31.35791,-9.6979 -70.15998,-46.58153 -4.83972,-4.60043 -8.57171,2.17679 -8.69784,8.38014 -0.12611,6.20334 3.76309,11.14492 3.76309,11.14492 0,0 28.11129,28.51857 68.2953,42.7607 3.23568,1.1468 -19.57662,3.95737 -1.51152,-7.18249 22.55974,-13.91151 -13.93937,17.82848 -13.93937,17.82848 0,0 -17.30723,-0.3743 19.52292,-20.93901 35.80113,-19.99014 26.0302,-42.93932 56.48592,-82.05896 7.64547,-9.82042 7.82623,-15.03935 10.91222,-25.65388 z"
       id="path1730-3"
       sodipodi:nodetypes="cccssszssccsccszcsscsscc" />
    <path
       style="fill:#787c7e;fill-opacity:1"
       d="m 311.29121,601.62414 5.66693,-0.35929"
       id="path1786" />
    <path
       style="fill:#999999;fill-opacity:1"
       d="m 134.59383,460.95187 63.58625,-144.71753 c 0,0 3.12701,-8.45445 10.87046,-13.28213 11.09403,-6.91662 29.72783,-8.60206 45.78516,13.90042 16.77493,23.50812 40.3322,95.83232 40.3322,95.83232 l -45.39129,-13.92013 -18.16788,-48.60595 c 0,0 -6.08123,-15.02446 -11.66978,-2.11644 -8.27809,19.12014 -54.78258,140.97533 -54.78258,140.97533 0,0 -8.03536,-3.95448 -17.554,-12.23246 -9.51864,-8.27798 -13.00854,-15.83343 -13.00854,-15.83343 z"
       id="path1897"
       sodipodi:nodetypes="ccsscccsczc" />
    <path
       style="fill:#999999;fill-opacity:1"
       d="m 124.61546,484.62427 c 0,0 17.77907,12.23788 24.75044,27.60291 1.12973,2.48994 -32.1561,85.58874 -32.1561,85.58874 0,0 -29.04089,-10.75587 -22.52674,-33.63212 5.82449,-20.45431 29.9324,-79.55953 29.9324,-79.55953 z"
       id="path1899"
       sodipodi:nodetypes="cscsc" />
    <path
       style="fill:#999999;fill-opacity:1"
       d="m 195.4137,427.25445 c 0,0 44.34012,-9.79586 61.66234,11.36277 5.09619,6.22486 -26.87286,-14.85012 -70.18144,10.70747 -11.60372,6.84767 8.5191,-22.07024 8.5191,-22.07024 z"
       id="path1901"
       sodipodi:nodetypes="cssc" />
    <text
       xml:space="preserve"
       id="text1959"
       style="font-size:29.3333px;white-space:pre;shape-inside:url(#rect1961);display:inline;fill:#787c7e;fill-opacity:1"
       transform="translate(-313.08149,9.860026)"><tspan
         x="671.69922"
         y="478.23456"
         id="tspan3"><tspan
           style="font-weight:bold;font-family:'Helvetica Rounded';-inkscape-font-specification:'Helvetica Rounded Bold'"
           id="tspan1">CH</tspan><tspan
           style="font-size:16px"
           id="tspan2">3</tspan></tspan></text>
    <text
       xml:space="preserve"
       id="text1959-9-0"
       style="font-size:29.3333px;white-space:pre;shape-inside:url(#rect1961-2-7);display:inline;fill:#00b482;fill-opacity:1"
       transform="translate(-588.24385,-104.25136)"><tspan
         x="671.69922"
         y="478.23456"
         id="tspan5"><tspan
           style="font-weight:bold;font-family:'Helvetica Rounded';-inkscape-font-specification:'Helvetica Rounded Bold'"
           id="tspan4">C</tspan></tspan></text>
    <text
       xml:space="preserve"
       id="text1959-9-0-7"
       style="font-size:29.3333px;white-space:pre;shape-inside:url(#rect1961-2-7-8);display:inline;fill:#00b482;fill-opacity:1"
       transform="translate(-359.51576,29.823916)"><tspan
         x="671.69922"
         y="478.23456"
         id="tspan7"><tspan
           style="font-weight:bold;font-family:'Helvetica Rounded';-inkscape-font-specification:'Helvetica Rounded Bold'"
           id="tspan6">C</tspan></tspan></text>
    <text
       xml:space="preserve"
       id="text1959-9-0-1"
       style="font-size:29.3333px;white-space:pre;shape-inside:url(#rect1961-2-7-6);display:inline;fill:#00b482;fill-opacity:1"
       transform="translate(-586.78745,-51.853126)"><tspan
         x="671.69922"
         y="478.23456"
         id="tspan9"><tspan
           style="font-weight:bold;font-family:'Helvetica Rounded';-inkscape-font-specification:'Helvetica Rounded Bold'"
           id="tspan8">G</tspan></tspan></text>
    <text
       xml:space="preserve"
       id="text1959-9-0-1-2"
       style="font-size:29.3333px;white-space:pre;shape-inside:url(#rect1961-2-7-6-9);display:inline;fill:#00b482;fill-opacity:1"
       transform="translate(-359.42111,88.002884)"><tspan
         x="671.69922"
         y="478.23456"
         id="tspan11"><tspan
           style="font-weight:bold;font-family:'Helvetica Rounded';-inkscape-font-specification:'Helvetica Rounded Bold'"
           id="tspan10">G</tspan></tspan></text>
    <text
       xml:space="preserve"
       id="text1959-6-5"
       style="font-size:29.3333px;white-space:pre;shape-inside:url(#rect1961-3-7);display:inline;fill:#787c7e;fill-opacity:1"
       transform="translate(-665.89294,-109.85615)"><tspan
         x="671.69922"
         y="478.23456"
         id="tspan15"><tspan
           style="font-weight:bold;font-family:'Helvetica Rounded';-inkscape-font-specification:'Helvetica Rounded Bold'"
           id="tspan12">H</tspan><tspan
           style="font-size:16px"
           id="tspan13">3</tspan><tspan
           style="font-weight:bold;font-family:'Helvetica Rounded';-inkscape-font-specification:'Helvetica Rounded Bold'"
           id="tspan14">C</tspan></tspan></text>
    <path
       style="fill:#000000"
       d="m 64.33409,356.09937 17.92473,4.35455 -1.09107,5.44621 -18.13401,-4.66097 z"
       id="path805"
       sodipodi:nodetypes="ccccc" />
    <path
       style="fill:#000000;stroke-width:1.17411"
       d="m 358.81495,484.86286 -19.62098,9.15387 -2.99745,-5.79418 20.03764,-9.02639 z"
       id="path805-2"
       sodipodi:nodetypes="ccccc"
       inkscape:transform-center-x="1.8966284"
       inkscape:transform-center-y="-2.4960045" />
    <text
       xml:space="preserve"
       id="text1"
       style="font-size:103.097px;white-space:pre;shape-inside:url(#rect1);display:inline;fill:#000000;stroke-width:1.00031;stroke-dasharray:none"
       transform="matrix(1.1891251,0,0,1.2694256,-286.40063,-16.498196)"><tspan
         x="542.38086"
         y="486.90306"
         id="tspan17"><tspan
           style="font-style:oblique;font-weight:bold;font-stretch:semi-condensed;font-family:'DejaVu Sans';-inkscape-font-specification:'DejaVu Sans Bold Oblique Semi-Condensed'"
           id="tspan16">uto     ethyc</tspan></tspan></text>
  </g>
</svg>
