<?xml version="1.0" encoding="UTF-8" standalone="no"?>
<!-- Created with Inkscape (http://www.inkscape.org/) -->

<svg
   version="1.1"
   id="svg32"
   width="1024"
   height="1024"
   viewBox="0 0 1024 1024"
   sodipodi:docname="logoAutoMethyc_v2.svg"
   inkscape:export-filename="../22232b95/AutoMethycV5.drawio (2).png"
   inkscape:export-xdpi="300"
   inkscape:export-ydpi="300"
   inkscape:version="1.2.2 (732a01da63, 2022-12-09, custom)"
   xmlns:inkscape="http://www.inkscape.org/namespaces/inkscape"
   xmlns:sodipodi="http://sodipodi.sourceforge.net/DTD/sodipodi-0.dtd"
   xmlns="http://www.w3.org/2000/svg"
   xmlns:svg="http://www.w3.org/2000/svg">
  <defs
     id="defs36">
    <rect
       x="671.69872"
       y="451.54469"
       width="84.419401"
       height="44.314656"
       id="rect1961" />
    <rect
       x="671.69873"
       y="451.54468"
       width="84.419403"
       height="44.314655"
       id="rect1961-3" />
    <rect
       x="671.69873"
       y="451.54468"
       width="84.419403"
       height="44.314655"
       id="rect1961-3-7" />
    <rect
       x="671.69873"
       y="451.54468"
       width="84.419403"
       height="44.314655"
       id="rect1961-3-3" />
    <rect
       x="671.69873"
       y="451.54468"
       width="84.419403"
       height="44.314655"
       id="rect1961-2" />
    <rect
       x="671.69873"
       y="451.54468"
       width="84.419403"
       height="44.314655"
       id="rect1961-2-7" />
    <rect
       x="671.69873"
       y="451.54468"
       width="84.419403"
       height="44.314655"
       id="rect1961-2-9" />
    <rect
       x="671.69873"
       y="451.54468"
       width="84.419403"
       height="44.314655"
       id="rect1961-2-9-6" />
    <rect
       x="671.69873"
       y="451.54468"
       width="84.419403"
       height="44.314655"
       id="rect1961-2-7-6" />
    <rect
       x="671.69873"
       y="451.54468"
       width="84.419403"
       height="44.314655"
       id="rect1961-2-7-8" />
    <rect
       x="671.69873"
       y="451.54468"
       width="84.419403"
       height="44.314655"
       id="rect1961-2-7-6-9" />
    <rect
       x="671.69873"
       y="451.54468"
       width="84.419403"
       height="44.314655"
       id="rect1961-0" />
  </defs>
  <sodipodi:namedview
     id="namedview34"
     pagecolor="#505050"
     bordercolor="#eeeeee"
     borderopacity="1"
     inkscape:showpageshadow="0"
     inkscape:pageopacity="0"
     inkscape:pagecheckerboard="0"
     inkscape:deskcolor="#505050"
     showgrid="false"
     inkscape:zoom="1.4142136"
     inkscape:cx="310.06632"
     inkscape:cy="518.30927"
     inkscape:window-width="1896"
     inkscape:window-height="1001"
     inkscape:window-x="12"
     inkscape:window-y="67"
     inkscape:window-maximized="1"
     inkscape:current-layer="g38" />
  <g
     inkscape:groupmode="layer"
     inkscape:label="Image"
     id="g38">
    <path
       style="fill:#000000;fill-opacity:1"
       d="m 421.49866,325.29986 c 0,0 -11.75575,8.27454 -20.21732,19.42239 -25.38345,33.44188 -62.37638,106.01904 2.89254,161.6215 4.68587,3.99188 17.06017,-10.07602 17.06017,-10.07602 0,0 -19.54453,-26.35282 -12.17319,-30.54011 7.12103,-4.04511 34.8378,-10.20985 34.8378,-10.20985 0,0 2.16763,-2.26487 3.79571,-6.88545 1.92351,-5.45904 2.46979,-9.30838 1.46822,-10.38707 -0.0214,-0.023 -7.64194,1.50378 -8.49919,1.72856 -0.73769,0.19344 -28.64553,7.64033 -34.78101,6.70176 -8.72662,-1.33494 -3.63486,-27.54685 -3.63486,-27.54685 0,0 20.34542,-3.50242 30.53945,-5.02044 10.19403,-1.51801 28.68054,-3.13494 28.68054,-3.13494 0,0 2.84394,-2.45501 4.85335,-7.82074 2.0094,-5.36573 1.76628,-9.71912 1.76628,-9.71912 0,0 -18.07823,0.32325 -35.40703,1.7784 -11.7683,0.98822 -25.20179,1.9259 -26.49754,2.39066 -3.28505,1.17827 12.11331,-45.12362 44.47954,-62.57083 2.5405,-1.36947 -7.024,-4.78028 -16.35676,-7.23123 -9.33276,-2.45095 -12.8067,-2.50062 -12.8067,-2.50062 z"
       id="path1569"
       sodipodi:nodetypes="csscscssssczczcssszc" />
    <path
       style="fill:#000000;fill-opacity:1"
       d="m 544.02372,450.09374 17.36985,34.93783 1.2213,1.17901 c 0,0 9.57932,6.80221 18.90661,18.03652 9.02355,10.86848 17.89659,26.10344 12.63971,30.57201 -30.59466,26.00674 -97.5473,17.95096 -116.0847,15.41909 -3.12516,-0.42683 -3.99695,2.74941 -3.8909,2.11751 0.10605,-0.6319 -0.39492,4.17437 1.87844,8.09351 0.10707,0.18459 0.68915,1.21988 1.34134,2.39765 0.39495,0.71324 0.81562,1.47873 1.17208,2.13918 1.11946,3.11238 6.59125,5.75506 6.59125,5.75506 0,0 46.69247,17.60649 116.64319,-11.39913 4.09674,-1.69875 5.12183,8.54828 6.29783,17.3893 1.176,8.84102 -5.10752,13.84386 -5.10752,13.84386 0,0 -42.45617,14.41548 -95.78716,9.7455 -6.65188,-0.58248 -4.24076,7.09029 -0.47404,12.02073 3.76673,4.93043 8.71739,7.77051 8.71739,7.77051 0,0 42.50969,6.22297 82.81339,-7.67684 3.24532,-1.11923 -3.55291,20.94691 -13.18474,39.85912 -10.73537,21.07901 -24.63148,39.31104 -24.63148,39.31104 0,0 45.80367,-11.18088 61.79572,-50.21448 15.54523,-37.94301 33.66021,-93.50916 -10.10877,-147.89135 -14.63527,-18.18405 -34.9842,-33.28709 -68.11879,-43.40563 z"
       id="path1730"
       sodipodi:nodetypes="cccssszssccsccszcsscssc" />
    <path
       style="fill:#787c7e;fill-opacity:1"
       d="m 604.8943,645.97414 5.66693,-0.35929"
       id="path1786" />
    <path
       style="fill:#999999;fill-opacity:1"
       d="m 428.19692,505.30187 63.58625,-144.71753 c 0,0 3.12701,-8.45445 10.87046,-13.28213 11.09403,-6.91662 29.72783,-8.60206 45.78516,13.90042 16.77493,23.50812 40.3322,95.83232 40.3322,95.83232 L 543.3797,443.11482 525.21182,394.50887 c 0,0 -6.08123,-15.02446 -11.66978,-2.11644 -8.27809,19.12014 -54.78258,140.97533 -54.78258,140.97533 0,0 -8.03536,-3.95448 -17.554,-12.23246 -9.51864,-8.27798 -13.00854,-15.83343 -13.00854,-15.83343 z"
       id="path1897"
       sodipodi:nodetypes="ccsscccsczc" />
    <path
       style="fill:#999999;fill-opacity:1"
       d="m 418.21855,528.97427 c 0,0 17.77907,12.23788 24.75044,27.60291 1.12973,2.48994 -32.1561,85.58874 -32.1561,85.58874 0,0 -29.04089,-10.75587 -22.52674,-33.63212 5.82449,-20.45431 29.9324,-79.55953 29.9324,-79.55953 z"
       id="path1899"
       sodipodi:nodetypes="cscsc" />
    <path
       style="fill:#999999;fill-opacity:1"
       d="m 489.01679,471.60445 c 0,0 44.34012,-9.79586 61.66234,11.36277 5.09619,6.22486 -26.87286,-14.85012 -70.18144,10.70747 -11.60372,6.84767 8.5191,-22.07024 8.5191,-22.07024 z"
       id="path1901"
       sodipodi:nodetypes="cssc" />
    <text
       xml:space="preserve"
       id="text1959"
       style="font-size:29.3333px;white-space:pre;shape-inside:url(#rect1961);display:inline;fill:#787c7e;fill-opacity:1"
       transform="translate(-19.478398,54.210022)"><tspan
         x="671.69922"
         y="478.08532"
         id="tspan3813"><tspan
           style="font-weight:bold;font-family:'Helvetica Rounded';-inkscape-font-specification:'Helvetica Rounded Bold'"
           id="tspan3809">CH</tspan><tspan
           style="font-size:16px"
           id="tspan3811">3</tspan></tspan></text>
    <text
       xml:space="preserve"
       id="text1959-9-0"
       style="font-size:29.3333px;white-space:pre;shape-inside:url(#rect1961-2-7);display:inline;fill:#00b482;fill-opacity:1"
       transform="translate(-294.64076,-59.901365)"><tspan
         x="671.69922"
         y="478.08532"
         id="tspan3817"><tspan
           style="font-weight:bold;font-family:'Helvetica Rounded';-inkscape-font-specification:'Helvetica Rounded Bold'"
           id="tspan3815">C</tspan></tspan></text>
    <text
       xml:space="preserve"
       id="text1959-9-0-7"
       style="font-size:29.3333px;white-space:pre;shape-inside:url(#rect1961-2-7-8);display:inline;fill:#00b482;fill-opacity:1"
       transform="translate(-65.912673,74.173912)"><tspan
         x="671.69922"
         y="478.08532"
         id="tspan3821"><tspan
           style="font-weight:bold;font-family:'Helvetica Rounded';-inkscape-font-specification:'Helvetica Rounded Bold'"
           id="tspan3819">C</tspan></tspan></text>
    <text
       xml:space="preserve"
       id="text1959-9-0-1"
       style="font-size:29.3333px;white-space:pre;shape-inside:url(#rect1961-2-7-6);display:inline;fill:#00b482;fill-opacity:1"
       transform="translate(-293.18436,-7.5031297)"><tspan
         x="671.69922"
         y="478.08532"
         id="tspan3825"><tspan
           style="font-weight:bold;font-family:'Helvetica Rounded';-inkscape-font-specification:'Helvetica Rounded Bold'"
           id="tspan3823">G</tspan></tspan></text>
    <text
       xml:space="preserve"
       id="text1959-9-0-1-2"
       style="font-size:29.3333px;white-space:pre;shape-inside:url(#rect1961-2-7-6-9);display:inline;fill:#00b482;fill-opacity:1"
       transform="translate(-65.818023,132.35288)"><tspan
         x="671.69922"
         y="478.08532"
         id="tspan3829"><tspan
           style="font-weight:bold;font-family:'Helvetica Rounded';-inkscape-font-specification:'Helvetica Rounded Bold'"
           id="tspan3827">G</tspan></tspan></text>
    <text
       xml:space="preserve"
       id="text1959-6-5"
       style="font-size:29.3333px;white-space:pre;shape-inside:url(#rect1961-3-7);display:inline;fill:#787c7e;fill-opacity:1"
       transform="translate(-372.28985,-65.506155)"><tspan
         x="671.69922"
         y="478.08532"
         id="tspan3837"><tspan
           style="font-weight:bold;font-family:'Helvetica Rounded';-inkscape-font-specification:'Helvetica Rounded Bold'"
           id="tspan3831">H</tspan><tspan
           style="font-size:16px"
           id="tspan3833">3</tspan><tspan
           style="font-weight:bold;font-family:'Helvetica Rounded';-inkscape-font-specification:'Helvetica Rounded Bold'"
           id="tspan3835">C</tspan></tspan></text>
    <path
       style="fill:#000000"
       d="m 357.93718,400.44937 17.92473,4.35455 -1.09107,5.44621 -18.13401,-4.66097 z"
       id="path805"
       sodipodi:nodetypes="ccccc" />
    <path
       style="fill:#000000;stroke-width:1.17411"
       d="m 652.41804,529.21286 -19.62098,9.15387 -2.99745,-5.79418 20.03764,-9.02639 z"
       id="path805-2"
       sodipodi:nodetypes="ccccc"
       inkscape:transform-center-x="1.8966284"
       inkscape:transform-center-y="-2.4960045" />
  </g>
</svg>
